<?xml version="1.0" standalone="no"?>
<!DOCTYPE svg PUBLIC "-//W3C//DTD SVG 20010904//EN"
 "http://www.w3.org/TR/2001/REC-SVG-20010904/DTD/svg10.dtd">
<svg version="1.0" xmlns="http://www.w3.org/2000/svg"
 width="400.000000pt" height="400.000000pt" viewBox="0 0 400.000000 400.000000"
 preserveAspectRatio="xMidYMid meet">
<metadata>
Created by potrace 1.14, written by Peter Selinger 2001-2017
</metadata>
<g transform="translate(0.000000,400.000000) scale(0.100000,-0.100000)"
fill="#000000" stroke="none">
<path d="M1850 3854 c-341 -32 -632 -130 -885 -296 -310 -204 -557 -511 -699
-870 -52 -132 -109 -363 -127 -512 -16 -139 -6 -392 21 -531 28 -144 96 -349
155 -466 112 -225 311 -479 495 -631 111 -92 379 -247 526 -305 72 -28 237
-73 324 -88 52 -9 102 -19 110 -22 43 -17 351 -19 450 -4 227 35 446 96 560
156 100 53 172 85 179 80 5 -2 11 1 14 8 3 7 24 26 48 42 212 143 411 340 534
528 150 232 210 373 286 677 15 60 38 351 34 435 -15 338 -91 598 -259 890
-112 193 -222 328 -386 471 -128 112 -217 172 -360 244 -196 98 -359 149 -584
180 -127 18 -323 24 -436 14z m525 -118 c327 -70 625 -224 858 -446 87 -82
226 -257 280 -352 97 -168 180 -363 208 -488 46 -200 53 -267 53 -465 0 -223
-9 -292 -60 -471 -54 -190 -93 -278 -206 -463 -79 -131 -313 -383 -443 -478
-58 -42 -168 -113 -175 -113 -4 0 -13 -6 -19 -14 -6 -7 -53 -31 -104 -51 -50
-21 -96 -42 -102 -46 -16 -11 -210 -65 -320 -89 -166 -36 -426 -44 -595 -20
-112 17 -304 67 -360 96 -14 7 -41 18 -60 25 -101 35 -236 112 -405 229 -92
64 -190 157 -312 300 -103 120 -244 374 -300 539 -53 159 -93 397 -93 559 0
223 58 507 145 710 49 114 153 294 224 387 262 344 673 586 1130 666 162 28
490 21 656 -15z"/>
<path d="M1865 3320 c-225 -24 -485 -128 -675 -271 -119 -89 -165 -133 -246
-234 -218 -269 -326 -644 -284 -985 38 -303 160 -565 360 -774 73 -76 237
-202 334 -255 57 -32 218 -98 294 -120 214 -63 503 -66 700 -7 372 110 676
355 856 691 52 96 73 150 113 295 31 109 36 144 40 275 6 184 -9 281 -72 470
-64 192 -135 317 -256 450 -233 255 -447 379 -766 444 -116 24 -287 33 -398
21z m178 -271 c39 -20 67 -52 67 -75 0 -55 -49 -104 -105 -104 -34 0 -85 50
-85 84 0 40 20 74 54 90 38 19 41 19 69 5z m-558 -384 c21 -4 503 -485 800
-797 98 -104 180 -188 182 -188 2 0 3 220 2 488 -2 268 1 493 5 500 5 8 40 12
107 12 l99 0 2 -685 c0 -377 1 -691 2 -697 1 -9 -23 -14 -80 -16 l-82 -3 -26
46 c-15 25 -31 43 -37 39 -5 -3 -8 -1 -7 4 4 13 -78 109 -227 262 -72 74 -210
218 -306 320 -95 101 -219 228 -274 281 l-100 97 -3 -519 -2 -519 -100 0 -100
0 -2 583 c-2 614 0 774 7 795 5 13 70 11 140 -3z m1622 -622 c43 -53 18 -134
-46 -148 -41 -9 -96 17 -116 54 -14 29 -14 34 0 64 33 70 117 86 162 30z
m-2054 7 c49 -39 42 -116 -14 -145 -52 -27 -110 -11 -135 36 -21 42 -17 67 15
100 36 36 95 40 134 9z m1016 -975 c41 -47 42 -95 5 -130 -46 -42 -110 -30
-139 25 -13 26 -14 34 -1 63 18 44 54 77 82 77 13 0 35 -15 53 -35z"/>
</g>
</svg>
